<svg xmlns="http://www.w3.org/2000/svg" xmlns:xlink="http://www.w3.org/1999/xlink" version="1.1" data-diagram-type="DESCRIPTION" style="width:1444px;height:685px;background:#FFFFFF;" width="1444px" height="685px" viewBox="0 0 1444 685" zoomAndPan="magnify" preserveAspectRatio="none" contentStyleType="text/css"><?plantuml 1.2026.8?><defs/><g font-family="sans-serif" lengthAdjust="spacing"><g class="title" data-source-line="1"><text x="604.33" y="24.966" fill="#000" font-size="14" textLength="228.339" font-weight="700">X3 Thermal Printer - deployment</text></g><!--cluster PC--><g class="cluster" data-qualified-name="PC" id="ent0001" data-source-line="5"><polygon points="16,56.068,26,46.068,1135,46.068,1135,552.068,1125,562.068,16,562.068,16,56.068" fill="none" style="stroke:#181818;stroke-width:1;stroke-linejoin:miter;stroke-miterlimit:10;"/><line x1="1125" y1="56.068" x2="1135" y2="46.068" style="stroke:#181818;stroke-width:1;"/><line x1="16" y1="56.068" x2="1125" y2="56.068" style="stroke:#181818;stroke-width:1;"/><line x1="1125" y1="56.068" x2="1125" y2="562.068" style="stroke:#181818;stroke-width:1;"/><text x="517.355" y="74.034" fill="#000" font-size="14" textLength="108.29" font-weight="700">Workstation PC</text></g><!--cluster HOME--><g class="cluster" data-qualified-name="PC.HOME" id="ent0002" data-source-line="6"><polygon points="40,107.068,50,97.068,727,97.068,727,528.068,717,538.068,40,538.068,40,107.068" fill="none" style="stroke:#181818;stroke-width:1;stroke-linejoin:miter;stroke-miterlimit:10;"/><line x1="717" y1="107.068" x2="727" y2="97.068" style="stroke:#181818;stroke-width:1;"/><line x1="40" y1="107.068" x2="717" y2="107.068" style="stroke:#181818;stroke-width:1;"/><line x1="717" y1="107.068" x2="717" y2="538.068" style="stroke:#181818;stroke-width:1;"/><text x="333.601" y="125.034" fill="#000" font-size="14" textLength="91.798" font-weight="700">User account</text></g><!--cluster SYS--><g class="cluster" data-qualified-name="PC.SYS" id="ent0008" data-source-line="13"><polygon points="882,288.068,892,278.068,1111,278.068,1111,376.068,1101,386.068,882,386.068,882,288.068" fill="none" style="stroke:#181818;stroke-width:1;stroke-linejoin:miter;stroke-miterlimit:10;"/><line x1="1101" y1="288.068" x2="1111" y2="278.068" style="stroke:#181818;stroke-width:1;"/><line x1="882" y1="288.068" x2="1101" y2="288.068" style="stroke:#181818;stroke-width:1;"/><line x1="1101" y1="288.068" x2="1101" y2="386.068" style="stroke:#181818;stroke-width:1;"/><text x="937.564" y="306.034" fill="#000" font-size="14" textLength="109.872" font-weight="700">system services</text></g><!--cluster X3--><g class="cluster" data-qualified-name="X3" id="ent0011" data-source-line="19"><polygon points="1159,447.068,1169,437.068,1419,437.068,1419,650.068,1409,660.068,1159,660.068,1159,447.068" fill="none" style="stroke:#181818;stroke-width:1;stroke-linejoin:miter;stroke-miterlimit:10;"/><line x1="1409" y1="447.068" x2="1419" y2="437.068" style="stroke:#181818;stroke-width:1;"/><line x1="1159" y1="447.068" x2="1409" y2="447.068" style="stroke:#181818;stroke-width:1;"/><line x1="1409" y1="447.068" x2="1409" y2="660.068" style="stroke:#181818;stroke-width:1;"/><text x="1219.802" y="465.034" fill="#000" font-size="14" textLength="130.395" font-weight="700">thermal printer X3</text></g><!--entity PROJ--><g class="entity" data-qualified-name="PC.HOME.PROJ" id="ent0003" data-source-line="7"><rect x="299.5" y="140.068" width="222.933" height="80.204" fill="#F1F1F1" style="stroke:#181818;stroke-width:0.5;" rx="2.5" ry="2.5"/><polygon points="505.433,145.068,505.433,159.068,517.433,159.068,517.433,151.068,511.433,145.068,505.433,145.068" fill="#F1F1F1" style="stroke:#181818;stroke-width:0.5;stroke-linejoin:miter;stroke-miterlimit:10;"/><line x1="511.433" y1="145.068" x2="511.433" y2="151.068" style="stroke:#181818;stroke-width:0.5;"/><line x1="517.433" y1="151.068" x2="511.433" y2="151.068" style="stroke:#181818;stroke-width:0.5;"/><text x="309.5" y="168.034" fill="#000" font-size="14" textLength="88.97">project folder</text><text x="309.5" y="187.102" fill="#000" font-size="14" textLength="192.933">(x3print.py, x3gui.py, i18n.py,</text><text x="309.5" y="206.17" fill="#000" font-size="14" textLength="192.513">cups/, assets/, scripts/, docs/)</text></g><!--entity CFG--><g class="entity" data-qualified-name="PC.HOME.CFG" id="ent0004" data-source-line="8"><rect x="56.5" y="324.568" width="182.571" height="42.068" fill="#F1F1F1" style="stroke:#181818;stroke-width:0.5;" rx="2.5" ry="2.5"/><polygon points="222.071,329.568,222.071,343.568,234.071,343.568,234.071,335.568,228.071,329.568,222.071,329.568" fill="#F1F1F1" style="stroke:#181818;stroke-width:0.5;stroke-linejoin:miter;stroke-miterlimit:10;"/><line x1="228.071" y1="329.568" x2="228.071" y2="335.568" style="stroke:#181818;stroke-width:0.5;"/><line x1="234.071" y1="335.568" x2="228.071" y2="335.568" style="stroke:#181818;stroke-width:0.5;"/><text x="66.5" y="352.534" fill="#000" font-size="14" textLength="152.571">/.config/x3drucker.json</text></g><!--entity ENTRY--><g class="entity" data-qualified-name="PC.HOME.ENTRY" id="ent0005" data-source-line="9"><rect x="284.5" y="315.068" width="201.107" height="61.136" fill="#F1F1F1" style="stroke:#181818;stroke-width:0.5;" rx="2.5" ry="2.5"/><polygon points="468.607,320.068,468.607,334.068,480.607,334.068,480.607,326.068,474.607,320.068,468.607,320.068" fill="#F1F1F1" style="stroke:#181818;stroke-width:0.5;stroke-linejoin:miter;stroke-miterlimit:10;"/><line x1="474.607" y1="320.068" x2="474.607" y2="326.068" style="stroke:#181818;stroke-width:0.5;"/><line x1="480.607" y1="326.068" x2="474.607" y2="326.068" style="stroke:#181818;stroke-width:0.5;"/><text x="294.5" y="343.034" fill="#000" font-size="14" textLength="171.107">/.local/share/applications/</text><text x="294.5" y="362.102" fill="#000" font-size="14" textLength="122.906">x3drucker.desktop</text></g><!--entity LINK--><g class="entity" data-qualified-name="PC.HOME.LINK" id="ent0006" data-source-line="10"><rect x="276" y="480.068" width="217.753" height="42.068" fill="#F1F1F1" style="stroke:#181818;stroke-width:0.5;" rx="2.5" ry="2.5"/><polygon points="476.753,485.068,476.753,499.068,488.753,499.068,488.753,491.068,482.753,485.068,476.753,485.068" fill="#F1F1F1" style="stroke:#181818;stroke-width:0.5;stroke-linejoin:miter;stroke-miterlimit:10;"/><line x1="482.753" y1="485.068" x2="482.753" y2="491.068" style="stroke:#181818;stroke-width:0.5;"/><line x1="488.753" y1="491.068" x2="482.753" y2="491.068" style="stroke:#181818;stroke-width:0.5;"/><text x="286" y="508.034" fill="#000" font-size="14" textLength="187.753">/Desktop/x3drucker.desktop</text></g><!--entity SVC--><g class="entity" data-qualified-name="PC.HOME.SVC" id="ent0007" data-source-line="11"><rect x="531" y="315.068" width="179.701" height="61.136" fill="#F1F1F1" style="stroke:#181818;stroke-width:0.5;" rx="2.5" ry="2.5"/><polygon points="693.701,320.068,693.701,334.068,705.701,334.068,705.701,326.068,699.701,320.068,693.701,320.068" fill="#F1F1F1" style="stroke:#181818;stroke-width:0.5;stroke-linejoin:miter;stroke-miterlimit:10;"/><line x1="699.701" y1="320.068" x2="699.701" y2="326.068" style="stroke:#181818;stroke-width:0.5;"/><line x1="705.701" y1="326.068" x2="699.701" y2="326.068" style="stroke:#181818;stroke-width:0.5;"/><text x="541" y="343.034" fill="#000" font-size="14" textLength="149.701">/.config/systemd/user/</text><text x="541" y="362.102" fill="#000" font-size="14" textLength="108.01">x3bridge.service</text></g><!--entity BLUEZ--><g class="entity" data-qualified-name="PC.SYS.BLUEZ" id="ent0009" data-source-line="14"><rect x="1017.5" y="321.068" width="77.268" height="49.068" fill="#F1F1F1" style="stroke:#181818;stroke-width:0.5;" rx="2.5" ry="2.5"/><rect x="1074.768" y="326.068" width="15" height="10" fill="#F1F1F1" style="stroke:#181818;stroke-width:0.5;"/><rect x="1072.768" y="328.068" width="4" height="2" fill="#F1F1F1" style="stroke:#181818;stroke-width:0.5;"/><rect x="1072.768" y="332.068" width="4" height="2" fill="#F1F1F1" style="stroke:#181818;stroke-width:0.5;"/><text x="1032.5" y="356.034" fill="#000" font-size="14" textLength="37.268">BlueZ</text></g><!--entity CUPS--><g class="entity" data-qualified-name="PC.SYS.CUPS" id="ent0010" data-source-line="15"><rect x="897.5" y="321.068" width="75.238" height="49.068" fill="#F1F1F1" style="stroke:#181818;stroke-width:0.5;" rx="2.5" ry="2.5"/><rect x="952.738" y="326.068" width="15" height="10" fill="#F1F1F1" style="stroke:#181818;stroke-width:0.5;"/><rect x="950.738" y="328.068" width="4" height="2" fill="#F1F1F1" style="stroke:#181818;stroke-width:0.5;"/><rect x="950.738" y="332.068" width="4" height="2" fill="#F1F1F1" style="stroke:#181818;stroke-width:0.5;"/><text x="912.5" y="356.034" fill="#000" font-size="14" textLength="35.238">CUPS</text></g><!--entity HEAD--><g class="entity" data-qualified-name="X3.HEAD" id="ent0012" data-source-line="20"><rect x="1175.5" y="602.068" width="226.867" height="42.068" fill="#F1F1F1" style="stroke:#181818;stroke-width:0.5;" rx="2.5" ry="2.5"/><polygon points="1385.367,607.068,1385.367,621.068,1397.367,621.068,1397.367,613.068,1391.367,607.068,1385.367,607.068" fill="#F1F1F1" style="stroke:#181818;stroke-width:0.5;stroke-linejoin:miter;stroke-miterlimit:10;"/><line x1="1391.367" y1="607.068" x2="1391.367" y2="613.068" style="stroke:#181818;stroke-width:0.5;"/><line x1="1397.367" y1="613.068" x2="1391.367" y2="613.068" style="stroke:#181818;stroke-width:0.5;"/><text x="1185.5" y="630.034" fill="#000" font-size="14" textLength="196.867">print head 864 dots @ 300 dpi</text></g><!--entity SPP--><g class="entity" data-qualified-name="X3.SPP" id="ent0013" data-source-line="21"><rect x="1175.5" y="480.068" width="198.951" height="42.068" fill="#F1F1F1" style="stroke:#181818;stroke-width:0.5;" rx="2.5" ry="2.5"/><polygon points="1357.451,485.068,1357.451,499.068,1369.451,499.068,1369.451,491.068,1363.451,485.068,1357.451,485.068" fill="#F1F1F1" style="stroke:#181818;stroke-width:0.5;stroke-linejoin:miter;stroke-miterlimit:10;"/><line x1="1363.451" y1="485.068" x2="1363.451" y2="491.068" style="stroke:#181818;stroke-width:0.5;"/><line x1="1369.451" y1="491.068" x2="1363.451" y2="491.068" style="stroke:#181818;stroke-width:0.5;"/><text x="1185.5" y="508.034" fill="#000" font-size="14" textLength="168.951">Bluetooth SPP (channel 1)</text></g><!--link PROJ to CFG--><g class="link" data-entity-1="ent0003" data-entity-2="ent0004" id="lnk14" data-source-line="24" data-link-type="dependency"><path d="M299.41,202.148 C270,211.348 239.63,224.458 215,243.068 C186.69,264.448 168.759,296.926 158.339,319.856" style="stroke:#181818;stroke-width:1;" fill="none" id="PROJ-to-CFG"/><polygon points="156.27,324.408,163.635,317.869,158.339,319.856,156.352,314.559,156.27,324.408" fill="#181818" style="stroke:#181818;stroke-width:1;stroke-linejoin:miter;stroke-miterlimit:10;"/><text x="216" y="257.965" fill="#000" font-size="13" textLength="37.713">stores</text></g><!--link PROJ to ENTRY--><g class="link" data-entity-1="ent0003" data-entity-2="ent0005" id="lnk15" data-source-line="25" data-link-type="dependency"><path d="M299.23,214.468 C287.73,222.138 277.53,231.538 270,243.068 C251.44,271.498 275.515,294.385 308.755,312.605" style="stroke:#181818;stroke-width:1;" fill="none" id="PROJ-to-ENTRY"/><polygon points="313.14,315.008,307.17,307.174,308.755,312.605,303.325,314.19,313.14,315.008" fill="#181818" style="stroke:#181818;stroke-width:1;stroke-linejoin:miter;stroke-miterlimit:10;"/><text x="271" y="257.965" fill="#000" font-size="13" textLength="219.037">scripts/install-desktop.sh or the GUI</text></g><!--link ENTRY to LINK--><g class="link" data-entity-1="ent0005" data-entity-2="ent0006" id="lnk16" data-source-line="26" data-link-type="dependency"><path d="M385,376.168 C385,406.658 385,448.358 385,474.858" style="stroke:#181818;stroke-width:1;" fill="none" id="ENTRY-to-LINK"/><polygon points="385,479.858,389,470.858,385,474.858,381,470.858,385,479.858" fill="#181818" style="stroke:#181818;stroke-width:1;stroke-linejoin:miter;stroke-miterlimit:10;"/><text x="386" y="416.965" fill="#000" font-size="13" textLength="28.73">copy</text></g><!--link PROJ to SVC--><g class="link" data-entity-1="ent0003" data-entity-2="ent0007" id="lnk17" data-source-line="27" data-link-type="dependency"><path d="M467.12,220.178 C477.48,227.648 488.14,235.498 498,243.068 C528.53,266.498 558.353,291.178 582.723,311.798" style="stroke:#181818;stroke-width:1;" fill="none" id="PROJ-to-SVC"/><polygon points="586.54,315.028,582.253,306.161,582.723,311.798,577.086,312.268,586.54,315.028" fill="#181818" style="stroke:#181818;stroke-width:1;stroke-linejoin:miter;stroke-miterlimit:10;"/><text x="524" y="257.965" fill="#000" font-size="13" textLength="162.825">scripts/install-cups-user.sh</text></g><!--link SVC to SPP--><g class="link" data-entity-1="ent0007" data-entity-2="ent0013" id="lnk18" data-source-line="28" data-link-type="dependency"><path d="M711.25,367.748 C837.66,397.418 1060.942,449.825 1184.702,478.875" style="stroke:#181818;stroke-width:1;" fill="none" id="SVC-to-SPP"/><polygon points="1189.57,480.018,1181.722,474.067,1184.702,478.875,1179.894,481.855,1189.57,480.018" fill="#181818" style="stroke:#181818;stroke-width:1;stroke-linejoin:miter;stroke-miterlimit:10;"/><text x="929" y="416.965" fill="#000" font-size="13" textLength="56.784">RFCOMM</text></g><!--link CUPS to SVC--><g class="link" data-entity-1="ent0010" data-entity-2="ent0007" id="lnk19" data-source-line="29" data-link-type="dependency"><path d="M897.11,345.568 C851.39,345.568 778,345.568 716.4,345.568" style="stroke:#181818;stroke-width:1;" fill="none" id="CUPS-to-SVC"/><polygon points="711.4,345.568,720.4,349.568,716.4,345.568,720.4,341.568,711.4,345.568" fill="#181818" style="stroke:#181818;stroke-width:1;stroke-linejoin:miter;stroke-miterlimit:10;"/><text x="734.25" y="338.465" fill="#000" font-size="13" textLength="140.751">socket://127.0.0.1:9101</text></g><!--link PROJ to BLUEZ--><g class="link" data-entity-1="ent0003" data-entity-2="ent0009" id="lnk20" data-source-line="30" data-link-type="dependency"><path d="M522.54,188.548 C668.91,199.968 916.42,225.288 995,270.068 C1015.77,281.908 1029.723,299.516 1040.333,316.516" style="stroke:#181818;stroke-width:1;" fill="none" id="PROJ-to-BLUEZ"/><polygon points="1042.98,320.758,1041.608,311.005,1040.333,316.516,1034.822,315.241,1042.98,320.758" fill="#181818" style="stroke:#181818;stroke-width:1;stroke-linejoin:miter;stroke-miterlimit:10;"/><text x="971" y="257.965" fill="#000" font-size="13" textLength="139.893">AF_BLUETOOTH socket</text></g><!--link BLUEZ to SPP--><g class="link" data-entity-1="ent0009" data-entity-2="ent0013" id="lnk21" data-source-line="31" data-link-type="dependency"><path d="M1089.74,370.218 C1132.69,400.318 1202.056,448.938 1242.366,477.198" style="stroke:#181818;stroke-width:1;" fill="none" id="BLUEZ-to-SPP"/><polygon points="1246.46,480.068,1241.387,471.626,1242.366,477.198,1236.794,478.177,1246.46,480.068" fill="#181818" style="stroke:#181818;stroke-width:1;stroke-linejoin:miter;stroke-miterlimit:10;"/></g><!--link SPP to HEAD--><g class="link" data-entity-1="ent0013" data-entity-2="ent0012" id="lnk22" data-source-line="32" data-link-type="dependency"><path d="M1277.34,522.158 C1279.93,544.308 1283.48,574.772 1286.07,596.952" style="stroke:#181818;stroke-width:1;" fill="none" id="SPP-to-HEAD"/><polygon points="1286.65,601.918,1289.579,592.515,1286.07,596.952,1281.633,593.443,1286.65,601.918" fill="#181818" style="stroke:#181818;stroke-width:1;stroke-linejoin:miter;stroke-miterlimit:10;"/></g><?plantuml-src TL9jRzCm4FwUNt7gfo6jSKC6Z7v0R5tt0kjQzGMsgH8oZjjuTMtBTb0hD7uxPoVGiWtbGovtpprtUPxpmaiEjpbCIsxNLCB82kMvXJOKt4YzNNFb4xSIob1Brw1qmHqtSFHcBscfMZN9902WzLNRbVFK2wrWr6i1TVY2dmb0NPyv744PqvNoiNev7FHZ7O1QBnQKUMWPgnyu1Wij2sxdwc2Jcx1UQhQ7iCcNbOYHo8vL2EQALSQHG-Hpt8V0CIjCZ0hD77bLBp8UVdeow1T9cLOBiIIRlB0LMt6RFZYj8hvtVl4SBZMZahYIMaweCLAm-BEEpDME0gLQUMqYI_zcEhvxndDM8yZBFTTNDv__kwdREi_N1QbGoZZrknN5agVu-KCm7WacNthO__XNzhe76eYhCNUJHdYcrqOhz1jQfxBYzx5yUZthtpyjzsQZIQqD1d72un_dVND7fhcZspm2ySB2a7rliGubfmKSlpr2Vxo3Zv1tEb0OKPz4_-JidvQmbDVQbp0PZU20bLGfBY6hRSLSs2Au2-tsXs0RTC5vRRdRPQCD8TzSXb1ufbAs6zbJLuAsW3y15xEhf4Q7lc05jZ5jjZiobFS5gd24xU0AaYK14g6uSHV6vxtXO904rVO9D3hlkuHahz-b7Nooxlkia-tcH0yGU7B-BOJJuN1wsNGbTQqPaOGn8GxQ_GO0?></g></svg>