<svg xmlns="http://www.w3.org/2000/svg" xmlns:xlink="http://www.w3.org/1999/xlink" version="1.1" data-diagram-type="SEQUENCE" style="width:864px;height:813px;background:#FFFFFF;" width="864px" height="813px" viewBox="0 0 864 813" zoomAndPan="magnify" preserveAspectRatio="none" contentStyleType="text/css"><?plantuml 1.2026.8?><defs/><g font-family="sans-serif" lengthAdjust="spacing"><g class="title" data-source-line="1"><text x="259.185" y="29.966" fill="#000" font-size="14" textLength="344.525" font-weight="700">Printing through CUPS (bridge x3bridge, no sudo)</text></g><rect x="472.914" y="298.666" width="267.428" height="179.788" fill="none" style="stroke:#000;stroke-width:1.5;"/><g><title>User</title><rect x="24.809" y="129.136" width="8" height="594.26" fill="#000" fill-opacity="0"/><line x1="28.309" y1="129.136" x2="28.309" y2="723.396" style="stroke:#181818;stroke-width:0.5;stroke-dasharray:5,5;"/></g><g><title>program</title><rect x="107.781" y="129.136" width="8" height="594.26" fill="#000" fill-opacity="0"/><line x1="111.281" y1="129.136" x2="111.281" y2="723.396" style="stroke:#181818;stroke-width:0.5;stroke-dasharray:5,5;"/></g><g><title>CUPS</title><rect x="309.227" y="129.136" width="8" height="594.26" fill="#000" fill-opacity="0"/><line x1="312.727" y1="129.136" x2="312.727" y2="723.396" style="stroke:#181818;stroke-width:0.5;stroke-dasharray:5,5;"/></g><g><title>x3bridge.py</title><rect x="485.414" y="129.136" width="8" height="594.26" fill="#000" fill-opacity="0"/><line x1="488.914" y1="129.136" x2="488.914" y2="723.396" style="stroke:#181818;stroke-width:0.5;stroke-dasharray:5,5;"/></g><g><title>x3print.py</title><rect x="720.842" y="129.136" width="8" height="594.26" fill="#000" fill-opacity="0"/><line x1="724.342" y1="129.136" x2="724.342" y2="723.396" style="stroke:#181818;stroke-width:0.5;stroke-dasharray:5,5;"/></g><g><title>printer X3</title><rect x="810.775" y="129.136" width="8" height="594.26" fill="#000" fill-opacity="0"/><line x1="814.275" y1="129.136" x2="814.275" y2="723.396" style="stroke:#181818;stroke-width:0.5;stroke-dasharray:5,5;"/></g><text x="10" y="125.034" fill="#000" font-size="14" textLength="30.618">User</text><ellipse cx="28.309" cy="58.568" rx="8" ry="8" fill="#E2E2F0" style="stroke:#181818;stroke-width:0.5;"/><path d="M28.309,66.568 L28.309,93.568 M15.309,74.568 L41.309,74.568 M28.309,93.568 L15.309,108.568 M28.309,93.568 L41.309,108.568" style="stroke:#181818;stroke-width:0.5;" fill="none"/><rect x="56.618" y="76" width="109.326" height="52.136" fill="#E2E2F0" style="stroke:#181818;stroke-width:0.5;" rx="2.5" ry="2.5"/><text x="82.182" y="97.966" fill="#000" font-size="14" textLength="58.198">program</text><text x="63.618" y="117.034" fill="#000" font-size="14" textLength="95.326">(LibreOffice ...)</text><rect x="249.111" y="76" width="127.232" height="52.136" fill="#E2E2F0" style="stroke:#181818;stroke-width:0.5;" rx="2.5" ry="2.5"/><text x="295.108" y="97.966" fill="#000" font-size="14" textLength="35.238">CUPS</text><text x="256.111" y="117.034" fill="#000" font-size="14" textLength="113.232">queue X3Thermo</text><rect x="434.37" y="76" width="109.088" height="52.136" fill="#E2E2F0" style="stroke:#181818;stroke-width:0.5;" rx="2.5" ry="2.5"/><text x="449.896" y="97.966" fill="#000" font-size="14" textLength="78.036">x3bridge.py</text><text x="441.37" y="117.034" fill="#000" font-size="14" textLength="95.088">127.0.0.1:9101</text><rect x="684.029" y="76" width="80.626" height="52.136" fill="#E2E2F0" style="stroke:#181818;stroke-width:0.5;" rx="2.5" ry="2.5"/><text x="691.029" y="97.966" fill="#000" font-size="14" textLength="66.626">x3print.py</text><text x="691.841" y="117.034" fill="#000" font-size="14" textLength="65.002">renderers</text><rect x="774.655" y="95.068" width="79.24" height="33.068" fill="#E2E2F0" style="stroke:#181818;stroke-width:0.5;" rx="2.5" ry="2.5"/><text x="781.655" y="117.034" fill="#000" font-size="14" textLength="65.24">printer X3</text><text x="10" y="738.362" fill="#000" font-size="14" textLength="30.618">User</text><ellipse cx="28.309" cy="750.964" rx="8" ry="8" fill="#E2E2F0" style="stroke:#181818;stroke-width:0.5;"/><path d="M28.309,758.964 L28.309,785.964 M15.309,766.964 L41.309,766.964 M28.309,785.964 L15.309,800.964 M28.309,785.964 L41.309,800.964" style="stroke:#181818;stroke-width:0.5;" fill="none"/><rect x="56.618" y="723.396" width="109.326" height="52.136" fill="#E2E2F0" style="stroke:#181818;stroke-width:0.5;" rx="2.5" ry="2.5"/><text x="82.182" y="745.362" fill="#000" font-size="14" textLength="58.198">program</text><text x="63.618" y="764.43" fill="#000" font-size="14" textLength="95.326">(LibreOffice ...)</text><rect x="249.111" y="723.396" width="127.232" height="52.136" fill="#E2E2F0" style="stroke:#181818;stroke-width:0.5;" rx="2.5" ry="2.5"/><text x="295.108" y="745.362" fill="#000" font-size="14" textLength="35.238">CUPS</text><text x="256.111" y="764.43" fill="#000" font-size="14" textLength="113.232">queue X3Thermo</text><rect x="434.37" y="723.396" width="109.088" height="52.136" fill="#E2E2F0" style="stroke:#181818;stroke-width:0.5;" rx="2.5" ry="2.5"/><text x="449.896" y="745.362" fill="#000" font-size="14" textLength="78.036">x3bridge.py</text><text x="441.37" y="764.43" fill="#000" font-size="14" textLength="95.088">127.0.0.1:9101</text><rect x="684.029" y="723.396" width="80.626" height="52.136" fill="#E2E2F0" style="stroke:#181818;stroke-width:0.5;" rx="2.5" ry="2.5"/><text x="691.029" y="745.362" fill="#000" font-size="14" textLength="66.626">x3print.py</text><text x="691.841" y="764.43" fill="#000" font-size="14" textLength="65.002">renderers</text><rect x="774.655" y="723.396" width="79.24" height="33.068" fill="#E2E2F0" style="stroke:#181818;stroke-width:0.5;" rx="2.5" ry="2.5"/><text x="781.655" y="745.362" fill="#000" font-size="14" textLength="65.24">printer X3</text><polygon points="99.281,156.842,109.281,160.842,99.281,164.842,103.281,160.842" fill="#181818" style="stroke:#181818;stroke-width:1;stroke-linejoin:miter;stroke-miterlimit:10;"/><line x1="28.309" y1="160.842" x2="105.281" y2="160.842" style="stroke:#181818;stroke-width:1;"/><text x="35.309" y="155.033" fill="#000" font-size="13" font-weight="700">1</text><text x="46.745" y="155.033" fill="#000" font-size="13" textLength="39.767">Print...</text><polygon points="300.727,188.548,310.727,192.548,300.727,196.548,304.727,192.548" fill="#181818" style="stroke:#181818;stroke-width:1;stroke-linejoin:miter;stroke-miterlimit:10;"/><line x1="111.281" y1="192.548" x2="306.727" y2="192.548" style="stroke:#181818;stroke-width:1;"/><text x="118.281" y="186.739" fill="#000" font-size="13" font-weight="700">2</text><text x="129.717" y="186.739" fill="#000" font-size="13" textLength="166.01">job (PDF / PS / image / text)</text><polygon points="476.914,220.254,486.914,224.254,476.914,228.254,480.914,224.254" fill="#181818" style="stroke:#181818;stroke-width:1;stroke-linejoin:miter;stroke-miterlimit:10;"/><line x1="312.727" y1="224.254" x2="482.914" y2="224.254" style="stroke:#181818;stroke-width:1;"/><text x="319.727" y="218.445" fill="#000" font-size="13" font-weight="700">3</text><text x="331.163" y="218.445" fill="#000" font-size="13" textLength="140.751">socket://127.0.0.1:9101</text><line x1="488.914" y1="273.666" x2="530.914" y2="273.666" style="stroke:#181818;stroke-width:1;"/><line x1="530.914" y1="273.666" x2="530.914" y2="286.666" style="stroke:#181818;stroke-width:1;"/><line x1="489.914" y1="286.666" x2="530.914" y2="286.666" style="stroke:#181818;stroke-width:1;"/><polygon points="499.914,282.666,489.914,286.666,499.914,290.666,495.914,286.666" fill="#181818" style="stroke:#181818;stroke-width:1;stroke-linejoin:miter;stroke-miterlimit:10;"/><text x="495.914" y="259.004" fill="#000" font-size="13" font-weight="700">4</text><text x="507.35" y="250.151" fill="#000" font-size="13" textLength="113.789">load_gui_settings()</text><text x="507.35" y="267.857" fill="#000" font-size="13" textLength="181.506">(geometry, brightness, mode)</text><path d="M472.914,298.666 L535.373,298.666 L535.373,308.372 L525.373,318.372 L472.914,318.372 L472.914,298.666" style="stroke:#000;stroke-width:1.5;" fill="#EEE"/><rect x="472.914" y="298.666" width="267.428" height="179.788" fill="none" style="stroke:#000;stroke-width:1.5;"/><text x="487.914" y="313.563" fill="#000" font-size="13" textLength="17.459" font-weight="700">alt</text><text x="550.373" y="312.425" fill="#000" font-size="11" textLength="101.65" font-weight="700">[PDF or PostScript]</text><line x1="488.914" y1="352.078" x2="530.914" y2="352.078" style="stroke:#181818;stroke-width:1;"/><line x1="530.914" y1="352.078" x2="530.914" y2="365.078" style="stroke:#181818;stroke-width:1;"/><line x1="489.914" y1="365.078" x2="530.914" y2="365.078" style="stroke:#181818;stroke-width:1;"/><polygon points="499.914,361.078,489.914,365.078,499.914,369.078,495.914,365.078" fill="#181818" style="stroke:#181818;stroke-width:1;stroke-linejoin:miter;stroke-miterlimit:10;"/><text x="495.914" y="346.269" fill="#000" font-size="13" font-weight="700">5</text><text x="507.35" y="346.269" fill="#000" font-size="13" textLength="204.386">Ghostscript 300 dpi -> PNG pages</text><line x1="472.914" y1="374.078" x2="740.342" y2="374.078" style="stroke:#000;stroke-width:1;stroke-dasharray:2,2;"/><text x="477.914" y="387.837" fill="#000" font-size="11" textLength="61.875" font-weight="700">[image file]</text><polygon points="712.342,413.766,722.342,417.766,712.342,421.766,716.342,417.766" fill="#181818" style="stroke:#181818;stroke-width:1;stroke-linejoin:miter;stroke-miterlimit:10;"/><line x1="488.914" y1="417.766" x2="718.342" y2="417.766" style="stroke:#181818;stroke-width:1;"/><text x="495.914" y="411.957" fill="#000" font-size="13" font-weight="700">6</text><text x="507.35" y="411.957" fill="#000" font-size="13" textLength="120.263">load_raster_image()</text><line x1="472.914" y1="426.766" x2="740.342" y2="426.766" style="stroke:#000;stroke-width:1;stroke-dasharray:2,2;"/><text x="477.914" y="440.525" fill="#000" font-size="11" textLength="60.093" font-weight="700">[plain text]</text><polygon points="712.342,466.454,722.342,470.454,712.342,474.454,716.342,470.454" fill="#181818" style="stroke:#181818;stroke-width:1;stroke-linejoin:miter;stroke-miterlimit:10;"/><line x1="488.914" y1="470.454" x2="718.342" y2="470.454" style="stroke:#181818;stroke-width:1;"/><text x="495.914" y="464.645" fill="#000" font-size="13" font-weight="700">7</text><text x="507.35" y="464.645" fill="#000" font-size="13" textLength="78.598">render_text()</text><polygon points="712.342,512.16,722.342,516.16,712.342,520.16,716.342,516.16" fill="#181818" style="stroke:#181818;stroke-width:1;stroke-linejoin:miter;stroke-miterlimit:10;"/><line x1="488.914" y1="516.16" x2="718.342" y2="516.16" style="stroke:#181818;stroke-width:1;"/><text x="495.914" y="510.351" fill="#000" font-size="13" font-weight="700">8</text><text x="507.35" y="510.351" fill="#000" font-size="13" textLength="199.992">render_image_file(..., brightness)</text><polygon points="499.914,543.866,489.914,547.866,499.914,551.866,495.914,547.866" fill="#181818" style="stroke:#181818;stroke-width:1;stroke-linejoin:miter;stroke-miterlimit:10;"/><line x1="493.914" y1="547.866" x2="723.342" y2="547.866" style="stroke:#181818;stroke-width:1;stroke-dasharray:2,2;"/><text x="505.914" y="542.057" fill="#000" font-size="13" font-weight="700">9</text><text x="517.35" y="542.057" fill="#000" font-size="13" textLength="69.173">1-bit image</text><line x1="488.914" y1="597.278" x2="530.914" y2="597.278" style="stroke:#181818;stroke-width:1;"/><line x1="530.914" y1="597.278" x2="530.914" y2="610.278" style="stroke:#181818;stroke-width:1;"/><line x1="489.914" y1="610.278" x2="530.914" y2="610.278" style="stroke:#181818;stroke-width:1;"/><polygon points="499.914,606.278,489.914,610.278,499.914,614.278,495.914,610.278" fill="#181818" style="stroke:#181818;stroke-width:1;stroke-linejoin:miter;stroke-miterlimit:10;"/><text x="495.914" y="582.616" fill="#000" font-size="13" textLength="14.872" font-weight="700">10</text><text x="514.786" y="573.763" fill="#000" font-size="13" textLength="114.92">embed_and_print()</text><text x="514.786" y="591.469" fill="#000" font-size="13" textLength="141.492">(864 dot raster, x = left)</text><polygon points="802.275,637.984,812.275,641.984,802.275,645.984,806.275,641.984" fill="#181818" style="stroke:#181818;stroke-width:1;stroke-linejoin:miter;stroke-miterlimit:10;"/><line x1="488.914" y1="641.984" x2="808.275" y2="641.984" style="stroke:#181818;stroke-width:1;"/><text x="495.914" y="636.175" fill="#000" font-size="13" textLength="14.872" font-weight="700">11</text><text x="514.786" y="636.175" fill="#000" font-size="13" textLength="179.348">speed / density / raster / feed</text><polygon points="499.914,669.69,489.914,673.69,499.914,677.69,495.914,673.69" fill="#181818" style="stroke:#181818;stroke-width:1;stroke-linejoin:miter;stroke-miterlimit:10;"/><line x1="493.914" y1="673.69" x2="813.275" y2="673.69" style="stroke:#181818;stroke-width:1;stroke-dasharray:2,2;"/><text x="505.914" y="667.881" fill="#000" font-size="13" textLength="14.872" font-weight="700">12</text><text x="524.786" y="667.881" fill="#000" font-size="13" textLength="44.772">printed</text><polygon points="323.727,701.396,313.727,705.396,323.727,709.396,319.727,705.396" fill="#181818" style="stroke:#181818;stroke-width:1;stroke-linejoin:miter;stroke-miterlimit:10;"/><line x1="317.727" y1="705.396" x2="487.914" y2="705.396" style="stroke:#181818;stroke-width:1;"/><text x="329.727" y="699.587" fill="#000" font-size="13" textLength="14.872" font-weight="700">13</text><text x="348.599" y="699.587" fill="#000" font-size="13" textLength="71.396">job finished</text><?plantuml-src RP9FZvim4CNl_XIZFO6KG2XLjutKIjt-sKlLHTb6oY4ICdW0js1JsqZ9j-_Ob6qILLnivZVsUs_ifEiH2YELawe5rnazjHrysXVF45L6YXRXbC-B5IWDTX8wPdnoMar3XOOnNZjjO6_H0BUmPoCtJjPovCh1tMXqQ_XmLD4tMHbyQXfP8oH94jzv-cDHNFF-ugFwFU64SCX_T6W67KXVk4ONMSbuFghirNsoeI_RliisMUXusDtoexSPS8DAe45ZvxEVTbzkPHD9XWvv00uvOtjOV_1wOJl7HHwOtzBVaDOMVkeAekBpLqY1zYd8WLDwAJWykPW5YE277Q5Mrx_GRTFqMZUZueBqcekodMHfqVdPs2Yc55lK0pfpNW6PRpkdqDeL35fWJ9Fe7VZxQHo5jkwvDd9q3E3YrCUE2ZOK8DziG8pIruhlZp2IMikmj_XNUIDxVEds6Isg3BSKJXceA9vRnfvB5QpUjinPbxxaOIKO-ryzd5RwEoEAzj8VPUV9zU8XMrVIpHel0qDwZgBaIfHXUY6kjszUWz0EPiKhEC5xwB6XSSoDXzmFOqGKD2U1oaftfjMCqwAX2YFevUxvOOZ5mR_1Dr99sw7u0m00?></g></svg>