<svg xmlns="http://www.w3.org/2000/svg" xmlns:xlink="http://www.w3.org/1999/xlink" version="1.1" data-diagram-type="SEQUENCE" style="width:805px;height:879px;background:#FFFFFF;" width="805px" height="879px" viewBox="0 0 805 879" zoomAndPan="magnify" preserveAspectRatio="none" contentStyleType="text/css"><?plantuml 1.2026.8?><defs/><g font-family="sans-serif" lengthAdjust="spacing"><g class="title" data-source-line="1"><text x="281.001" y="29.966" fill="#000" font-size="14" textLength="241.023" font-weight="700">Using the user interface (x3gui.py)</text></g><rect x="13" y="456.196" width="650.56" height="169.53" fill="none" style="stroke:#000;stroke-width:1.5;"/><g><title>User</title><rect x="25.5" y="129.136" width="8" height="660.414" fill="#000" fill-opacity="0"/><line x1="29" y1="129.136" x2="29" y2="789.55" style="stroke:#181818;stroke-width:0.5;stroke-dasharray:5,5;"/></g><g><title>x3gui.py</title><rect x="304.244" y="129.136" width="8" height="660.414" fill="#000" fill-opacity="0"/><line x1="307.744" y1="129.136" x2="307.744" y2="789.55" style="stroke:#181818;stroke-width:0.5;stroke-dasharray:5,5;"/></g><g><title>render_...</title><rect x="528.57" y="129.136" width="8" height="660.414" fill="#000" fill-opacity="0"/><line x1="532.07" y1="129.136" x2="532.07" y2="789.55" style="stroke:#181818;stroke-width:0.5;stroke-dasharray:5,5;"/></g><g><title>preview canvas</title><rect x="644.06" y="129.136" width="8" height="660.414" fill="#000" fill-opacity="0"/><line x1="647.56" y1="129.136" x2="647.56" y2="789.55" style="stroke:#181818;stroke-width:0.5;stroke-dasharray:5,5;"/></g><g><title>printer X3</title><rect x="750.905" y="129.136" width="8" height="660.414" fill="#000" fill-opacity="0"/><line x1="754.405" y1="129.136" x2="754.405" y2="789.55" style="stroke:#181818;stroke-width:0.5;stroke-dasharray:5,5;"/></g><text x="10.691" y="125.034" fill="#000" font-size="14" textLength="30.618">User</text><ellipse cx="29" cy="58.568" rx="8" ry="8" fill="#E2E2F0" style="stroke:#181818;stroke-width:0.5;"/><path d="M29,66.568 L29,93.568 M16,74.568 L42,74.568 M29,93.568 L16,108.568 M29,93.568 L42,108.568" style="stroke:#181818;stroke-width:0.5;" fill="none"/><rect x="272.849" y="76" width="69.79" height="52.136" fill="#E2E2F0" style="stroke:#181818;stroke-width:0.5;" rx="2.5" ry="2.5"/><text x="279.849" y="97.966" fill="#000" font-size="14" textLength="55.79">x3gui.py</text><text x="282.355" y="117.034" fill="#000" font-size="14" textLength="50.778">(X3App)</text><rect x="483.806" y="76" width="96.53" height="52.136" fill="#E2E2F0" style="stroke:#181818;stroke-width:0.5;" rx="2.5" ry="2.5"/><text x="498.597" y="97.966" fill="#000" font-size="14" textLength="66.948">render_*()</text><text x="490.806" y="117.034" fill="#000" font-size="14" textLength="82.53">in x3print.py</text><rect x="590.335" y="95.068" width="114.45" height="33.068" fill="#E2E2F0" style="stroke:#181818;stroke-width:0.5;" rx="2.5" ry="2.5"/><text x="597.335" y="117.034" fill="#000" font-size="14" textLength="100.45">preview canvas</text><rect x="714.785" y="95.068" width="79.24" height="33.068" fill="#E2E2F0" style="stroke:#181818;stroke-width:0.5;" rx="2.5" ry="2.5"/><text x="721.785" y="117.034" fill="#000" font-size="14" textLength="65.24">printer X3</text><text x="10.691" y="804.516" fill="#000" font-size="14" textLength="30.618">User</text><ellipse cx="29" cy="817.118" rx="8" ry="8" fill="#E2E2F0" style="stroke:#181818;stroke-width:0.5;"/><path d="M29,825.118 L29,852.118 M16,833.118 L42,833.118 M29,852.118 L16,867.118 M29,852.118 L42,867.118" style="stroke:#181818;stroke-width:0.5;" fill="none"/><rect x="272.849" y="789.55" width="69.79" height="52.136" fill="#E2E2F0" style="stroke:#181818;stroke-width:0.5;" rx="2.5" ry="2.5"/><text x="279.849" y="811.516" fill="#000" font-size="14" textLength="55.79">x3gui.py</text><text x="282.355" y="830.584" fill="#000" font-size="14" textLength="50.778">(X3App)</text><rect x="483.806" y="789.55" width="96.53" height="52.136" fill="#E2E2F0" style="stroke:#181818;stroke-width:0.5;" rx="2.5" ry="2.5"/><text x="498.597" y="811.516" fill="#000" font-size="14" textLength="66.948">render_*()</text><text x="490.806" y="830.584" fill="#000" font-size="14" textLength="82.53">in x3print.py</text><rect x="590.335" y="789.55" width="114.45" height="33.068" fill="#E2E2F0" style="stroke:#181818;stroke-width:0.5;" rx="2.5" ry="2.5"/><text x="597.335" y="811.516" fill="#000" font-size="14" textLength="100.45">preview canvas</text><rect x="714.785" y="789.55" width="79.24" height="33.068" fill="#E2E2F0" style="stroke:#181818;stroke-width:0.5;" rx="2.5" ry="2.5"/><text x="721.785" y="811.516" fill="#000" font-size="14" textLength="65.24">printer X3</text><polygon points="295.744,156.842,305.744,160.842,295.744,164.842,299.744,160.842" fill="#181818" style="stroke:#181818;stroke-width:1;stroke-linejoin:miter;stroke-miterlimit:10;"/><line x1="29" y1="160.842" x2="301.744" y2="160.842" style="stroke:#181818;stroke-width:1;"/><text x="36" y="155.033" fill="#000" font-size="13" font-weight="700">1</text><text x="47.436" y="155.033" fill="#000" font-size="13" textLength="243.308">pick a tab (Text / Image / Barcode &amp; QR)</text><polygon points="295.744,188.548,305.744,192.548,295.744,196.548,299.744,192.548" fill="#181818" style="stroke:#181818;stroke-width:1;stroke-linejoin:miter;stroke-miterlimit:10;"/><line x1="29" y1="192.548" x2="301.744" y2="192.548" style="stroke:#181818;stroke-width:1;"/><text x="36" y="186.739" fill="#000" font-size="13" font-weight="700">2</text><text x="47.436" y="186.739" fill="#000" font-size="13" textLength="200.694">type content or choose an image</text><line x1="307.744" y1="224.254" x2="349.744" y2="224.254" style="stroke:#181818;stroke-width:1;"/><line x1="349.744" y1="224.254" x2="349.744" y2="237.254" style="stroke:#181818;stroke-width:1;"/><line x1="308.744" y1="237.254" x2="349.744" y2="237.254" style="stroke:#181818;stroke-width:1;"/><polygon points="318.744,233.254,308.744,237.254,318.744,241.254,314.744,237.254" fill="#181818" style="stroke:#181818;stroke-width:1;stroke-linejoin:miter;stroke-miterlimit:10;"/><text x="314.744" y="218.445" fill="#000" font-size="13" font-weight="700">3</text><text x="326.18" y="218.445" fill="#000" font-size="13" textLength="100.503">queue_preview()</text><polygon points="520.07,282.666,530.07,286.666,520.07,290.666,524.07,286.666" fill="#181818" style="stroke:#181818;stroke-width:1;stroke-linejoin:miter;stroke-miterlimit:10;"/><line x1="307.744" y1="286.666" x2="526.07" y2="286.666" style="stroke:#181818;stroke-width:1;"/><text x="314.744" y="272.004" fill="#000" font-size="13" font-weight="700">4</text><text x="326.18" y="263.151" fill="#000" font-size="13" textLength="91.195">build_content()</text><text x="326.18" y="280.857" fill="#000" font-size="13" textLength="188.89">(Markdown, blocks, image, QR)</text><polygon points="318.744,314.372,308.744,318.372,318.744,322.372,314.744,318.372" fill="#181818" style="stroke:#181818;stroke-width:1;stroke-linejoin:miter;stroke-miterlimit:10;"/><line x1="312.744" y1="318.372" x2="531.07" y2="318.372" style="stroke:#181818;stroke-width:1;stroke-dasharray:2,2;"/><text x="324.744" y="312.563" fill="#000" font-size="13" font-weight="700">5</text><text x="336.18" y="312.563" fill="#000" font-size="13" textLength="119.444">1-bit content image</text><line x1="307.744" y1="350.078" x2="349.744" y2="350.078" style="stroke:#181818;stroke-width:1;"/><line x1="349.744" y1="350.078" x2="349.744" y2="363.078" style="stroke:#181818;stroke-width:1;"/><line x1="308.744" y1="363.078" x2="349.744" y2="363.078" style="stroke:#181818;stroke-width:1;"/><polygon points="318.744,359.078,308.744,363.078,318.744,367.078,314.744,363.078" fill="#181818" style="stroke:#181818;stroke-width:1;stroke-linejoin:miter;stroke-miterlimit:10;"/><text x="314.744" y="344.269" fill="#000" font-size="13" font-weight="700">6</text><text x="326.18" y="344.269" fill="#000" font-size="13" textLength="129.948">_embed() + geometry</text><polygon points="635.56,408.49,645.56,412.49,635.56,416.49,639.56,412.49" fill="#181818" style="stroke:#181818;stroke-width:1;stroke-linejoin:miter;stroke-miterlimit:10;"/><line x1="307.744" y1="412.49" x2="641.56" y2="412.49" style="stroke:#181818;stroke-width:1;"/><text x="314.744" y="397.828" fill="#000" font-size="13" font-weight="700">7</text><text x="326.18" y="388.975" fill="#000" font-size="13" textLength="161.356">compose_preview_image()</text><text x="326.18" y="406.681" fill="#000" font-size="13" textLength="135.239">(paper, ruler, handles)</text><polygon points="40,440.196,30,444.196,40,448.196,36,444.196" fill="#181818" style="stroke:#181818;stroke-width:1;stroke-linejoin:miter;stroke-miterlimit:10;"/><line x1="34" y1="444.196" x2="646.56" y2="444.196" style="stroke:#181818;stroke-width:1;stroke-dasharray:2,2;"/><text x="46" y="438.387" fill="#000" font-size="13" font-weight="700">8</text><text x="57.436" y="438.387" fill="#000" font-size="13" textLength="90.662">preview in mm</text><path d="M13,456.196 L252.259,456.196 L252.259,465.902 L242.259,475.902 L13,475.902 L13,456.196" style="stroke:#000;stroke-width:1.5;" fill="#EEE"/><rect x="13" y="456.196" width="650.56" height="169.53" fill="none" style="stroke:#000;stroke-width:1.5;"/><text x="28" y="471.093" fill="#000" font-size="13" textLength="194.259" font-weight="700">size / position with the mouse</text><polygon points="635.56,505.608,645.56,509.608,635.56,513.608,639.56,509.608" fill="#181818" style="stroke:#181818;stroke-width:1;stroke-linejoin:miter;stroke-miterlimit:10;"/><line x1="29" y1="509.608" x2="641.56" y2="509.608" style="stroke:#181818;stroke-width:1;"/><text x="36" y="503.799" fill="#000" font-size="13" font-weight="700">9</text><text x="47.436" y="503.799" fill="#000" font-size="13" textLength="262.106">drag a corner (diagonal) or an edge (width)</text><polygon points="318.744,537.314,308.744,541.314,318.744,545.314,314.744,541.314" fill="#181818" style="stroke:#181818;stroke-width:1;stroke-linejoin:miter;stroke-miterlimit:10;"/><line x1="312.744" y1="541.314" x2="646.56" y2="541.314" style="stroke:#181818;stroke-width:1;"/><text x="324.744" y="535.505" fill="#000" font-size="13" textLength="14.872" font-weight="700">10</text><text x="343.616" y="535.505" fill="#000" font-size="13" textLength="127.413">on_preview_motion()</text><line x1="307.744" y1="573.02" x2="349.744" y2="573.02" style="stroke:#181818;stroke-width:1;"/><line x1="349.744" y1="573.02" x2="349.744" y2="586.02" style="stroke:#181818;stroke-width:1;"/><line x1="308.744" y1="586.02" x2="349.744" y2="586.02" style="stroke:#181818;stroke-width:1;"/><polygon points="318.744,582.02,308.744,586.02,318.744,590.02,314.744,586.02" fill="#181818" style="stroke:#181818;stroke-width:1;stroke-linejoin:miter;stroke-miterlimit:10;"/><text x="314.744" y="567.211" fill="#000" font-size="13" textLength="14.872" font-weight="700">11</text><text x="333.616" y="567.211" fill="#000" font-size="13" textLength="164.879">compute scale / offset_mm</text><polygon points="635.56,613.726,645.56,617.726,635.56,621.726,639.56,617.726" fill="#181818" style="stroke:#181818;stroke-width:1;stroke-linejoin:miter;stroke-miterlimit:10;"/><line x1="307.744" y1="617.726" x2="641.56" y2="617.726" style="stroke:#181818;stroke-width:1;"/><text x="314.744" y="611.917" fill="#000" font-size="13" textLength="14.872" font-weight="700">12</text><text x="333.616" y="611.917" fill="#000" font-size="13" textLength="118.599">redraw the preview</text><polygon points="295.744,659.432,305.744,663.432,295.744,667.432,299.744,663.432" fill="#181818" style="stroke:#181818;stroke-width:1;stroke-linejoin:miter;stroke-miterlimit:10;"/><line x1="29" y1="663.432" x2="301.744" y2="663.432" style="stroke:#181818;stroke-width:1;"/><text x="36" y="657.623" fill="#000" font-size="13" textLength="14.872" font-weight="700">13</text><text x="54.872" y="657.623" fill="#000" font-size="13" textLength="56.303">"🖨 Print"</text><line x1="307.744" y1="695.138" x2="349.744" y2="695.138" style="stroke:#181818;stroke-width:1;"/><line x1="349.744" y1="695.138" x2="349.744" y2="708.138" style="stroke:#181818;stroke-width:1;"/><line x1="308.744" y1="708.138" x2="349.744" y2="708.138" style="stroke:#181818;stroke-width:1;"/><polygon points="318.744,704.138,308.744,708.138,318.744,712.138,314.744,708.138" fill="#181818" style="stroke:#181818;stroke-width:1;stroke-linejoin:miter;stroke-miterlimit:10;"/><text x="314.744" y="689.329" fill="#000" font-size="13" textLength="14.872" font-weight="700">14</text><text x="333.616" y="689.329" fill="#000" font-size="13" textLength="147.316">params() + save_config()</text><polygon points="742.405,735.844,752.405,739.844,742.405,743.844,746.405,739.844" fill="#181818" style="stroke:#181818;stroke-width:1;stroke-linejoin:miter;stroke-miterlimit:10;"/><line x1="307.744" y1="739.844" x2="748.405" y2="739.844" style="stroke:#181818;stroke-width:1;"/><text x="314.744" y="734.035" fill="#000" font-size="13" textLength="14.872" font-weight="700">15</text><text x="333.616" y="734.035" fill="#000" font-size="13" textLength="258.869">_run_bg(): make_printer(...) + print_image()</text><polygon points="318.744,767.55,308.744,771.55,318.744,775.55,314.744,771.55" fill="#181818" style="stroke:#181818;stroke-width:1;stroke-linejoin:miter;stroke-miterlimit:10;"/><line x1="312.744" y1="771.55" x2="753.405" y2="771.55" style="stroke:#181818;stroke-width:1;stroke-dasharray:2,2;"/><text x="324.744" y="765.741" fill="#000" font-size="13" textLength="14.872" font-weight="700">16</text><text x="343.616" y="765.741" fill="#000" font-size="13" textLength="132.093">log: "Print job sent ..."</text><?plantuml-src RL9DZzCm4BtxLunwG0cqHIYtFI01GcWFYB8YgnvMYYRED35DR6Cx_U27SENAp-CdxDWqMOeuHQtVc_VclGagz0IbLxg5q16CdXme7SZjK19afw8TrTgUSu5ZC7eSQd92e0p6COknwA4K5brGKbdK0HOJvK5ds-ADjVaYWZwKjzSmHxeXLptFyWUjD9mAwrYNUGd-xjFT-skyTNHGT0I9-e0-WJRt_qAISzWMwNbR2572wdNKXXkmIku18M0DsHSw1NW9jmEsnD-twAHf29x1vxlyRquuMm9fU2hFvvLbPumdG0qgKaL4pU1l8urKNNnc-VGOL-7NUbHzKrrcnQMpZ-ZsZJdg9TIzaNk__3DqcKmarcgU_MfLgp0x-OzuHLnDa-Nm0beo0mLtdW2RUtwNPh1iVR9NfH79XaLBRWbkxEEdGztqv7F1h2XVnkGkqNDDmo14wynemQllCJeUge8o6eugTEc41iD7903AMRjns7BoqZZDxMIDmjPexFEOA4T93PUG7LKJkfnvKNZQokZPy62YJ1OHLul7nSP0u2NsqP3PxJo5YetEm6J24Tiu9eUNaO8lyEf25hz__lW5ctX5Y-jq-Snmy2bTZmUADUvK-zJnjeWLk55NDVzx0mFkOzJf7BFrUXs9wUUKks36KxkzQLaz2SDNKuEF9JDjyGW0?></g></svg>