<svg xmlns="http://www.w3.org/2000/svg" xmlns:xlink="http://www.w3.org/1999/xlink" version="1.1" data-diagram-type="STATE" style="width:1159px;height:983px;background:#FFFFFF;" width="1159px" height="983px" viewBox="0 0 1159 983" zoomAndPan="magnify" preserveAspectRatio="none" contentStyleType="text/css"><?plantuml 1.2026.8?><defs/><g font-family="sans-serif" lengthAdjust="spacing"><g class="title" data-source-line="1"><text x="456.941" y="24.966" fill="#000" font-size="14" textLength="238.377" font-weight="700">Connection lifecycle of the printer</text></g><g class="entity" data-qualified-name="Connected" id="ent0001" data-source-line="18"><path d="M270.23,47.068 L530.926,47.068 A12.5,12.5 0 0 1 543.426,59.568 L543.426,76.136 L257.73,76.136 L257.73,59.568 A12.5,12.5 0 0 1 270.23,47.068" fill="#F1F1F1"/><rect x="257.73" y="47.068" width="285.696" height="370.068" fill="none" style="stroke:#181818;stroke-width:0.5;" rx="12.5" ry="12.5"/><line x1="257.73" y1="76.136" x2="543.426" y2="76.136" style="stroke:#181818;stroke-width:0.5;"/><text x="365.179" y="67.034" fill="#000" font-size="14" textLength="70.798">Connected</text><g class="start_entity" data-qualified-name="Connected..start.Connected" id="ent0020" data-source-line="19"><ellipse cx="375.73" cy="97.136" rx="10" ry="10" fill="#222" style="stroke:#222;stroke-width:1;"/></g><g class="entity" data-qualified-name="Connected.Ready" id="ent0021" data-source-line="19"><rect x="345.73" y="144.136" width="60.208" height="50" fill="#F1F1F1" style="stroke:#181818;stroke-width:0.5;" rx="12.5" ry="12.5"/><line x1="345.73" y1="173.204" x2="405.938" y2="173.204" style="stroke:#181818;stroke-width:0.5;"/><text x="355.73" y="164.102" fill="#000" font-size="14" textLength="40.208">Ready</text></g><g class="entity" data-qualified-name="Connected.Initialised" id="ent0023" data-source-line="20"><rect x="269.73" y="249.136" width="83.966" height="50" fill="#F1F1F1" style="stroke:#181818;stroke-width:0.5;" rx="12.5" ry="12.5"/><line x1="269.73" y1="278.204" x2="353.696" y2="278.204" style="stroke:#181818;stroke-width:0.5;"/><text x="279.73" y="269.102" fill="#000" font-size="14" textLength="63.966">Initialised</text></g><g class="entity" data-qualified-name="Connected.Configured" id="ent0025" data-source-line="21"><rect x="327.73" y="354.136" width="93.948" height="50" fill="#F1F1F1" style="stroke:#181818;stroke-width:0.5;" rx="12.5" ry="12.5"/><line x1="327.73" y1="383.204" x2="421.678" y2="383.204" style="stroke:#181818;stroke-width:0.5;"/><text x="337.73" y="374.102" fill="#000" font-size="14" textLength="73.948">Configured</text></g><!--link *start*Connected to Ready--><g class="link" data-entity-1="ent0020" data-entity-2="ent0021" id="lnk22" data-source-line="19" data-link-type="dependency"><path d="M375.73,107.286 C375.73,116.556 375.73,126.276 375.73,138.916" style="stroke:#181818;stroke-width:1;" fill="none" id="*start*Connected-to-Ready"/><polygon points="375.73,143.916,379.73,134.916,375.73,138.916,371.73,134.916,375.73,143.916" fill="#181818" style="stroke:#181818;stroke-width:1;stroke-linejoin:miter;stroke-miterlimit:10;"/></g><!--link Ready to Initialised--><g class="link" data-entity-1="ent0021" data-entity-2="ent0023" id="lnk24" data-source-line="20" data-link-type="dependency"><path d="M360.72,194.286 C350.53,210.696 339.729,228.079 329.499,244.539" style="stroke:#181818;stroke-width:1;" fill="none" id="Ready-to-Initialised"/><polygon points="326.86,248.786,335.008,243.253,329.499,244.539,328.213,239.03,326.86,248.786" fill="#181818" style="stroke:#181818;stroke-width:1;stroke-linejoin:miter;stroke-miterlimit:10;"/><text x="350.73" y="227.033" fill="#000" font-size="13" textLength="67.431">0x80 token</text></g><!--link Initialised to Configured--><g class="link" data-entity-1="ent0023" data-entity-2="ent0025" id="lnk26" data-source-line="21" data-link-type="dependency"><path d="M294.71,299.136 C288.62,310.866 284.78,324.836 291.73,336.136 C299.85,349.346 308.999,356.486 322.959,362.836" style="stroke:#181818;stroke-width:1;" fill="none" id="Initialised-to-Configured"/><polygon points="327.51,364.906,320.974,357.538,322.959,362.836,317.662,364.82,327.51,364.906" fill="#181818" style="stroke:#181818;stroke-width:1;stroke-linejoin:miter;stroke-miterlimit:10;"/><text x="292.73" y="332.033" fill="#000" font-size="13" textLength="152.997">0x0a speed, 0x09 density</text></g><!--link Configured to Ready--><g class="link" data-entity-1="ent0025" data-entity-2="ent0021" id="lnk27" data-source-line="22" data-link-type="dependency"><path d="M421.95,359.536 C431.44,353.526 440.2,345.836 445.73,336.136 C473.5,287.446 451,260.536 422.73,212.136 C418.43,204.766 416.046,201.385 409.726,195.525" style="stroke:#181818;stroke-width:1;" fill="none" id="Configured-to-Ready"/><polygon points="406.06,192.126,409.94,201.178,409.726,195.525,415.379,195.312,406.06,192.126" fill="#181818" style="stroke:#181818;stroke-width:1;stroke-linejoin:miter;stroke-miterlimit:10;"/><text x="458.73" y="279.533" fill="#000" font-size="13" textLength="59.696">0x02 feed</text></g></g><g class="start_entity" data-qualified-name=".start." id="ent0002" data-source-line="2"><ellipse cx="881.73" cy="232.068" rx="10" ry="10" fill="#222" style="stroke:#222;stroke-width:1;"/></g><g class="entity" data-qualified-name="Disconnected" id="ent0003" data-source-line="2"><rect x="827.23" y="514.068" width="109.208" height="50" fill="#F1F1F1" style="stroke:#181818;stroke-width:0.5;" rx="12.5" ry="12.5"/><line x1="827.23" y1="543.136" x2="936.438" y2="543.136" style="stroke:#181818;stroke-width:0.5;"/><text x="837.23" y="534.034" fill="#000" font-size="14" textLength="89.208">Disconnected</text></g><g class="entity" data-qualified-name="MacLookup" id="ent0005" data-source-line="4"><rect x="746.73" y="661.068" width="96.286" height="50" fill="#F1F1F1" style="stroke:#181818;stroke-width:0.5;" rx="12.5" ry="12.5"/><line x1="746.73" y1="690.136" x2="843.016" y2="690.136" style="stroke:#181818;stroke-width:0.5;"/><text x="756.73" y="681.034" fill="#000" font-size="14" textLength="76.286">MacLookup</text></g><g class="entity" data-qualified-name="Connecting" id="ent0008" data-source-line="7"><rect x="747.23" y="790.068" width="95.166" height="50" fill="#F1F1F1" style="stroke:#181818;stroke-width:0.5;" rx="12.5" ry="12.5"/><line x1="747.23" y1="819.136" x2="842.396" y2="819.136" style="stroke:#181818;stroke-width:0.5;"/><text x="757.23" y="810.034" fill="#000" font-size="14" textLength="75.166">Connecting</text></g><g class="entity" data-qualified-name="Waiting" id="ent0011" data-source-line="9"><rect x="920.73" y="919.068" width="70.414" height="50" fill="#F1F1F1" style="stroke:#181818;stroke-width:0.5;" rx="12.5" ry="12.5"/><line x1="920.73" y1="948.136" x2="991.144" y2="948.136" style="stroke:#181818;stroke-width:0.5;"/><text x="930.73" y="939.034" fill="#000" font-size="14" textLength="50.414">Waiting</text></g><g class="entity" data-qualified-name="Sending" id="ent0015" data-source-line="13"><rect x="150.73" y="514.068" width="73.718" height="50" fill="#F1F1F1" style="stroke:#181818;stroke-width:0.5;" rx="12.5" ry="12.5"/><line x1="150.73" y1="543.136" x2="224.448" y2="543.136" style="stroke:#181818;stroke-width:0.5;"/><text x="160.73" y="534.034" fill="#000" font-size="14" textLength="53.718">Sending</text></g><!--link *start* to Disconnected--><g class="link" data-entity-1="ent0002" data-entity-2="ent0003" id="lnk4" data-source-line="2" data-link-type="dependency"><path d="M881.73,242.198 C881.73,283.128 881.73,445.538 881.73,508.748" style="stroke:#181818;stroke-width:1;" fill="none" id="*start*-to-Disconnected"/><polygon points="881.73,513.748,885.73,504.748,881.73,508.748,877.73,504.748,881.73,513.748" fill="#181818" style="stroke:#181818;stroke-width:1;stroke-linejoin:miter;stroke-miterlimit:10;"/></g><!--link Disconnected to MacLookup--><g class="link" data-entity-1="ent0003" data-entity-2="ent0005" id="lnk6" data-source-line="4" data-link-type="dependency"><path d="M827.03,558.798 C811.22,567.038 795.8,578.488 786.73,594.068 C774.93,614.358 777.992,636.815 783.902,656.195" style="stroke:#181818;stroke-width:1;" fill="none" id="Disconnected-to-MacLookup"/><polygon points="785.36,660.978,786.561,651.203,783.902,656.195,778.909,653.536,785.36,660.978" fill="#181818" style="stroke:#181818;stroke-width:1;stroke-linejoin:miter;stroke-miterlimit:10;"/><text x="787.73" y="617.965" fill="#000" font-size="13" textLength="56.238">connect()</text></g><!--link MacLookup to Disconnected--><g class="link" data-entity-1="ent0005" data-entity-2="ent0003" id="lnk7" data-source-line="5" data-link-type="dependency"><path d="M823.36,661.008 C832.4,652.298 841.83,641.918 848.73,631.068 C861.99,610.228 869.604,588.144 874.784,569.004" style="stroke:#181818;stroke-width:1;" fill="none" id="MacLookup-to-Disconnected"/><polygon points="876.09,564.178,869.878,571.82,874.784,569.004,877.6,573.91,876.09,564.178" fill="#181818" style="stroke:#181818;stroke-width:1;stroke-linejoin:miter;stroke-miterlimit:10;"/><text x="883.773" y="608.965" fill="#000" font-size="13" textLength="87.373">no MAC found</text><text x="866.73" y="626.671" fill="#000" font-size="13" textLength="121.459">("No printer found")</text></g><!--link MacLookup to Connecting--><g class="link" data-entity-1="ent0005" data-entity-2="ent0008" id="lnk9" data-source-line="7" data-link-type="dependency"><path d="M794.73,711.258 C794.73,733.848 794.73,762.398 794.73,784.968" style="stroke:#181818;stroke-width:1;" fill="none" id="MacLookup-to-Connecting"/><polygon points="794.73,789.968,798.73,780.968,794.73,784.968,790.73,780.968,794.73,789.968" fill="#181818" style="stroke:#181818;stroke-width:1;stroke-linejoin:miter;stroke-miterlimit:10;"/><text x="795.73" y="755.965" fill="#000" font-size="13" textLength="72.787">MAC known</text></g><!--link Connecting to Connected--><g class="link" data-entity-1="ent0008" data-entity-2="ent0001" id="lnk10" data-source-line="8" data-link-type="dependency"><path d="M763.04,790.058 C722.96,758.068 654.54,697.698 615.73,631.068 C572.9,557.528 600.84,523.168 562.73,447.068 C557,435.608 553.194,428.434 546.384,417.094" style="stroke:#181818;stroke-width:1;" fill="none" id="Connecting-to-Connected"/><polygon points="543.81,412.808,545.014,422.583,546.384,417.094,551.873,418.464,543.81,412.808" fill="#181818" style="stroke:#181818;stroke-width:1;stroke-linejoin:miter;stroke-miterlimit:10;"/><text x="616.73" y="617.965" fill="#000" font-size="13" textLength="153.907">RFCOMM channel 1 open</text></g><!--link Connecting to Waiting--><g class="link" data-entity-1="ent0008" data-entity-2="ent0011" id="lnk12" data-source-line="9" data-link-type="dependency"><path d="M842.4,828.948 C866.88,837.458 895.86,850.678 916.73,870.068 C931.05,883.368 939.279,898.505 945.619,914.115" style="stroke:#181818;stroke-width:1;" fill="none" id="Connecting-to-Waiting"/><polygon points="947.5,918.748,947.819,908.904,945.619,914.115,940.407,911.915,947.5,918.748" fill="#181818" style="stroke:#181818;stroke-width:1;stroke-linejoin:miter;stroke-miterlimit:10;"/><text x="931.73" y="884.965" fill="#000" font-size="13" textLength="48.49">OSError</text></g><!--link Waiting to Connecting--><g class="link" data-entity-1="ent0011" data-entity-2="ent0008" id="lnk13" data-source-line="10" data-link-type="dependency"><path d="M920.57,943.058 C880.93,940.918 818.05,930.658 787.73,889.068 C777.61,875.178 778.671,860.426 783.291,845.056" style="stroke:#181818;stroke-width:1;" fill="none" id="Waiting-to-Connecting"/><polygon points="784.73,840.268,778.309,847.736,783.291,845.056,785.97,850.038,784.73,840.268" fill="#181818" style="stroke:#181818;stroke-width:1;stroke-linejoin:miter;stroke-miterlimit:10;"/><text x="788.73" y="884.965" fill="#000" font-size="13" textLength="119.054">retry (3x, 2 s pause)</text></g><!--link Waiting to Disconnected--><g class="link" data-entity-1="ent0011" data-entity-2="ent0003" id="lnk14" data-source-line="11" data-link-type="dependency"><path d="M974.24,918.808 C979.99,909.928 985.63,899.488 988.73,889.068 C1144.26,367.448 1020.63,631.688 996.73,594.068 C983.31,572.938 963.9,561.577 941.2,553.647" style="stroke:#181818;stroke-width:1;" fill="none" id="Waiting-to-Disconnected"/><polygon points="936.48,551.998,943.657,558.742,941.2,553.647,946.296,551.19,936.48,551.998" fill="#181818" style="stroke:#181818;stroke-width:1;stroke-linejoin:miter;stroke-miterlimit:10;"/><text x="1030.73" y="755.965" fill="#000" font-size="13" textLength="109.642">all attempts failed</text></g><!--link Connected to Sending--><g class="link" data-entity-1="ent0001" data-entity-2="ent0015" id="lnk16" data-source-line="13" data-link-type="dependency"><path d="M257.64,272.198 C171.12,304.048 67.79,358.578 15.73,447.068 C7.4,461.238 6,470.808 15.73,484.068 C46.57,526.078 105.056,536.031 145.676,538.041" style="stroke:#181818;stroke-width:1;" fill="none" id="Connected-to-Sending"/><polygon points="150.67,538.288,141.879,533.848,145.676,538.041,141.483,541.838,150.67,538.288" fill="#181818" style="stroke:#181818;stroke-width:1;stroke-linejoin:miter;stroke-miterlimit:10;"/><text x="16.73" y="470.965" fill="#000" font-size="13" textLength="127.673">print_image() / feed()</text></g><!--link Sending to Connected--><g class="link" data-entity-1="ent0015" data-entity-2="ent0001" id="lnk17" data-source-line="14" data-link-type="dependency"><path d="M181.63,513.898 C178.08,494.968 175.85,468.368 184.73,447.068 C200.93,408.208 224.509,376.377 254.109,346.027" style="stroke:#181818;stroke-width:1;" fill="none" id="Sending-to-Connected"/><polygon points="257.6,342.448,248.453,346.098,254.109,346.027,254.18,351.684,257.6,342.448" fill="#181818" style="stroke:#181818;stroke-width:1;stroke-linejoin:miter;stroke-miterlimit:10;"/><text x="238.283" y="461.965" fill="#000" font-size="13" textLength="66.287">frame sent</text><text x="185.73" y="479.671" fill="#000" font-size="13" textLength="171.392">(432 byte blocks, no pauses)</text></g><!--link Sending to Connected--><g class="link" data-entity-1="ent0015" data-entity-2="ent0001" id="lnk18" data-source-line="15" data-link-type="dependency"><path d="M224.77,537.448 C264.83,534.658 327.53,523.698 361.73,484.068 C378.3,464.868 387.972,446.433 395.212,421.943" style="stroke:#181818;stroke-width:1;" fill="none" id="Sending-to-Connected-1"/><polygon points="396.63,417.148,390.243,424.645,395.212,421.943,397.914,426.913,396.63,417.148" fill="#181818" style="stroke:#181818;stroke-width:1;stroke-linejoin:miter;stroke-miterlimit:10;"/><text x="384.73" y="470.965" fill="#000" font-size="13" textLength="169.702">timeout (0.8 s read window)</text></g><!--link Connected to Disconnected--><g class="link" data-entity-1="ent0001" data-entity-2="ent0003" id="lnk19" data-source-line="16" data-link-type="dependency"><path d="M543.89,382.188 C586.29,419.778 634.81,457.078 684.73,484.068 C729.5,508.268 781.065,521.389 822.055,529.049" style="stroke:#181818;stroke-width:1;" fill="none" id="Connected-to-Disconnected"/><polygon points="826.97,529.968,818.858,524.383,822.055,529.049,817.388,532.247,826.97,529.968" fill="#181818" style="stroke:#181818;stroke-width:1;stroke-linejoin:miter;stroke-miterlimit:10;"/><text x="685.73" y="470.965" fill="#000" font-size="13" textLength="187.967">close() / context manager ends</text></g><?plantuml-src TL9DIyD05BplhnWy9T9ghHwg1q6gWc0LzE11HTRafIxTx8RT5zeY_dStNvf6F2KxEszctYIiM1FcrXXAM5a3hJ9Ajaa0RGR-81HE6IOddlTVCHwVurBvfA5JAaJ_L5ylP79hxQeiS8Rs9eh5BpgK23HZiRYO8xEbILzCj7TdEzC6sul5GA3BQvPXl9fT6RiseWVtMBN7m_NyVh50yY43fd44Mz2VWIUfMitxnoldh1CTyiVK4RijekFD25Du5BBq5E_G1qjAhI6PAI_O8vDAL-tDTwfx99CswlNwRogNIufY728ZIaEB7M6uNEPaJl1aEDHtSZp5-vO9xzecAp-gwgtZ-Vy5MELaIqOqEPY5RHp956jbKhkE1na7MoNQ-YPYG9asZ5oQaDeXE7aXF4kcdjMd0BeVwI6uRCEvVjR8ZGdrIQryhJtPp2PWkmhV2JjNRVfCBKlNCYSIlWWbZQhtKwHalE9AlCVxyMmcfdMhukiR?></g></svg>